<mxfile host="65bd71144e">
    <diagram id="pLtpVyUbuMatPzjlErbM" name="Page-1">
        <mxGraphModel dx="758" dy="518" grid="1" gridSize="10" guides="1" tooltips="1" connect="1" arrows="1" fold="1" page="1" pageScale="1" pageWidth="1169" pageHeight="827" math="0" shadow="0">
            <root>
                <mxCell id="0"/>
                <mxCell id="1" parent="0"/>
                <mxCell id="2" value="&lt;h2&gt;&lt;font face=&quot;IRANSans&quot;&gt;Users&lt;/font&gt;&lt;/h2&gt;" style="whiteSpace=wrap;html=1;fillColor=#6a00ff;strokeColor=#3700CC;fontColor=#ffffff;" parent="1" vertex="1">
                    <mxGeometry x="1085.59" y="300" width="160" height="60" as="geometry"/>
                </mxCell>
                <mxCell id="39" style="edgeStyle=orthogonalEdgeStyle;shape=link;rounded=0;orthogonalLoop=1;jettySize=auto;html=1;entryX=0.5;entryY=0;entryDx=0;entryDy=0;" parent="1" source="4" target="36" edge="1">
                    <mxGeometry relative="1" as="geometry">
                        <mxPoint x="1407.5" y="835" as="sourcePoint"/>
                    </mxGeometry>
                </mxCell>
                <mxCell id="186" style="edgeStyle=orthogonalEdgeStyle;shape=link;rounded=0;orthogonalLoop=1;jettySize=auto;html=1;exitX=0.5;exitY=1;exitDx=0;exitDy=0;entryX=0.5;entryY=0;entryDx=0;entryDy=0;fontFamily=IRANSans;fontSize=21;" edge="1" parent="1" source="4" target="184">
                    <mxGeometry relative="1" as="geometry"/>
                </mxCell>
                <mxCell id="4" value="&lt;h2&gt;&lt;font face=&quot;IRANSans&quot;&gt;Tasks&lt;/font&gt;&lt;/h2&gt;" style="whiteSpace=wrap;html=1;fillColor=#d80073;strokeColor=#A50040;fontColor=#ffffff;" parent="1" vertex="1">
                    <mxGeometry x="1085.59" y="690" width="160" height="80" as="geometry"/>
                </mxCell>
                <mxCell id="185" style="edgeStyle=orthogonalEdgeStyle;shape=link;rounded=0;orthogonalLoop=1;jettySize=auto;html=1;exitX=1;exitY=0.5;exitDx=0;exitDy=0;entryX=0;entryY=0.5;entryDx=0;entryDy=0;fontFamily=IRANSans;fontSize=21;" edge="1" parent="1" source="5" target="184">
                    <mxGeometry relative="1" as="geometry"/>
                </mxCell>
                <mxCell id="5" value="&lt;h2 style=&quot;font-size: 20px;&quot;&gt;&lt;font style=&quot;font-size: 20px;&quot;&gt;Tags&lt;/font&gt;&lt;/h2&gt;" style="whiteSpace=wrap;html=1;fillColor=#6a00ff;strokeColor=#3700CC;fontColor=#ffffff;fontSize=20;fontFamily=IRANSans;" parent="1" vertex="1">
                    <mxGeometry x="740" y="950" width="160" height="60" as="geometry"/>
                </mxCell>
                <mxCell id="7" value="&lt;h2 style=&quot;font-size: 20px;&quot;&gt;&lt;font style=&quot;font-size: 20px;&quot;&gt;Folders&lt;/font&gt;&lt;/h2&gt;" style="whiteSpace=wrap;html=1;fillColor=#6a00ff;strokeColor=#3700CC;fontColor=#ffffff;fontSize=20;fontFamily=IRANSans;" parent="1" vertex="1">
                    <mxGeometry x="1520" y="950" width="160" height="60" as="geometry"/>
                </mxCell>
                <mxCell id="166" style="edgeStyle=orthogonalEdgeStyle;shape=link;rounded=0;orthogonalLoop=1;jettySize=auto;html=1;exitX=0.5;exitY=1;exitDx=0;exitDy=0;fontFamily=IRANSans;fontSize=20;" edge="1" parent="1" source="9" target="4">
                    <mxGeometry relative="1" as="geometry"/>
                </mxCell>
                <mxCell id="9" value="&lt;p style=&quot;font-size: 15px;&quot;&gt;Create&lt;/p&gt;" style="rhombus;whiteSpace=wrap;html=1;fillColor=#e3c800;strokeColor=#B09500;fontColor=#000000;fontFamily=IRANSans;fontSize=15;" parent="1" vertex="1">
                    <mxGeometry x="1129.04" y="450" width="73.09" height="85" as="geometry"/>
                </mxCell>
                <mxCell id="36" value="&lt;p style=&quot;font-size: 21px;&quot;&gt;Insert&lt;/p&gt;" style="rhombus;whiteSpace=wrap;html=1;fillColor=#e3c800;strokeColor=#B09500;fontColor=#000000;fontFamily=IRANSans;fontSize=21;" parent="1" vertex="1">
                    <mxGeometry x="1550" y="700" width="100" height="100" as="geometry"/>
                </mxCell>
                <mxCell id="60" value="&lt;h1&gt;&lt;font face=&quot;IRANSans&quot;&gt;&lt;u&gt;ID&lt;/u&gt;&lt;/font&gt;&lt;/h1&gt;" style="ellipse;whiteSpace=wrap;html=1;fillColor=#fa6800;strokeColor=#C73500;fontColor=#FFFFFF;" parent="1" vertex="1">
                    <mxGeometry x="779.9999999999999" y="820" width="93.75" height="50" as="geometry"/>
                </mxCell>
                <mxCell id="61" value="" style="endArrow=none;html=1;fontColor=#FFFFFF;entryX=0.5;entryY=1;entryDx=0;entryDy=0;exitX=0.5;exitY=0;exitDx=0;exitDy=0;" parent="1" source="5" target="60" edge="1">
                    <mxGeometry width="50" height="50" relative="1" as="geometry">
                        <mxPoint x="860" y="960" as="sourcePoint"/>
                        <mxPoint x="912.46875" y="1210" as="targetPoint"/>
                    </mxGeometry>
                </mxCell>
                <mxCell id="63" value="" style="endArrow=none;html=1;fontColor=#FFFFFF;exitX=0.5;exitY=1;exitDx=0;exitDy=0;entryX=0.25;entryY=0;entryDx=0;entryDy=0;" parent="1" source="159" target="5" edge="1">
                    <mxGeometry width="50" height="50" relative="1" as="geometry">
                        <mxPoint x="686.875" y="885" as="sourcePoint"/>
                        <mxPoint x="810" y="830" as="targetPoint"/>
                    </mxGeometry>
                </mxCell>
                <mxCell id="110" value="" style="endArrow=none;html=1;fontColor=#FFFFFF;entryX=0.5;entryY=1;entryDx=0;entryDy=0;exitX=0.25;exitY=0;exitDx=0;exitDy=0;" parent="1" source="4" target="161" edge="1">
                    <mxGeometry width="50" height="50" relative="1" as="geometry">
                        <mxPoint x="1058.13" y="660" as="sourcePoint"/>
                        <mxPoint x="1098.03125" y="611" as="targetPoint"/>
                    </mxGeometry>
                </mxCell>
                <mxCell id="116" value="" style="endArrow=none;html=1;fontColor=#FFFFFF;entryX=0.5;entryY=1;entryDx=0;entryDy=0;exitX=0.75;exitY=0;exitDx=0;exitDy=0;" parent="1" source="4" target="162" edge="1">
                    <mxGeometry width="50" height="50" relative="1" as="geometry">
                        <mxPoint x="1240" y="660" as="sourcePoint"/>
                        <mxPoint x="1288.71" y="610" as="targetPoint"/>
                    </mxGeometry>
                </mxCell>
                <mxCell id="118" value="" style="endArrow=none;html=1;fontColor=#FFFFFF;entryX=0.5;entryY=1;entryDx=0;entryDy=0;exitX=1;exitY=0.25;exitDx=0;exitDy=0;" parent="1" source="4" target="163" edge="1">
                    <mxGeometry width="50" height="50" relative="1" as="geometry">
                        <mxPoint x="1251.21" y="710" as="sourcePoint"/>
                        <mxPoint x="1363.71" y="650" as="targetPoint"/>
                    </mxGeometry>
                </mxCell>
                <mxCell id="125" value="&lt;h1&gt;&lt;font&gt;&lt;u&gt;ID&lt;/u&gt;&lt;/font&gt;&lt;/h1&gt;" style="ellipse;whiteSpace=wrap;html=1;fillColor=#fa6800;strokeColor=#C73500;fontColor=#FFFFFF;fontFamily=IRANSans;" parent="1" vertex="1">
                    <mxGeometry x="1118.71" y="120" width="93.75" height="50" as="geometry"/>
                </mxCell>
                <mxCell id="126" value="" style="endArrow=none;html=1;fontColor=#FFFFFF;entryX=0.5;entryY=1;entryDx=0;entryDy=0;exitX=0.5;exitY=0;exitDx=0;exitDy=0;" parent="1" source="2" target="125" edge="1">
                    <mxGeometry width="50" height="50" relative="1" as="geometry">
                        <mxPoint x="1160" y="320" as="sourcePoint"/>
                        <mxPoint x="1210" y="270" as="targetPoint"/>
                    </mxGeometry>
                </mxCell>
                <mxCell id="128" value="&lt;font style=&quot;font-size: 20px;&quot;&gt;Email&lt;/font&gt;" style="ellipse;whiteSpace=wrap;html=1;fillColor=#fa6800;strokeColor=#C73500;fontColor=#FFFFFF;fontSize=20;fontFamily=IRANSans;" parent="1" vertex="1">
                    <mxGeometry x="1240" y="140" width="93.75" height="50" as="geometry"/>
                </mxCell>
                <mxCell id="129" value="" style="endArrow=none;html=1;fontColor=#FFFFFF;entryX=0.392;entryY=1.06;entryDx=0;entryDy=0;entryPerimeter=0;exitX=0.75;exitY=0;exitDx=0;exitDy=0;" parent="1" source="2" target="128" edge="1">
                    <mxGeometry width="50" height="50" relative="1" as="geometry">
                        <mxPoint x="1320" y="270" as="sourcePoint"/>
                        <mxPoint x="1370" y="220" as="targetPoint"/>
                    </mxGeometry>
                </mxCell>
                <mxCell id="130" value="&lt;font style=&quot;font-size: 20px;&quot;&gt;Name&lt;/font&gt;" style="ellipse;whiteSpace=wrap;html=1;fillColor=#fa6800;strokeColor=#C73500;fontColor=#FFFFFF;fontFamily=IRANSans;fontSize=20;" parent="1" vertex="1">
                    <mxGeometry x="942.5" y="170" width="93.75" height="50" as="geometry"/>
                </mxCell>
                <mxCell id="131" value="" style="endArrow=none;html=1;fontColor=#FFFFFF;entryX=0.5;entryY=1;entryDx=0;entryDy=0;exitX=0.25;exitY=0;exitDx=0;exitDy=0;" parent="1" source="2" target="130" edge="1">
                    <mxGeometry width="50" height="50" relative="1" as="geometry">
                        <mxPoint x="1160" y="310" as="sourcePoint"/>
                        <mxPoint x="1210" y="260" as="targetPoint"/>
                    </mxGeometry>
                </mxCell>
                <mxCell id="147" value="" style="endArrow=none;html=1;fontColor=#FFFFFF;entryX=0.5;entryY=1;entryDx=0;entryDy=0;exitX=0.75;exitY=0;exitDx=0;exitDy=0;" parent="1" source="7" target="160" edge="1">
                    <mxGeometry width="50" height="50" relative="1" as="geometry">
                        <mxPoint x="1603.75" y="950" as="sourcePoint"/>
                        <mxPoint x="1793.75" y="895" as="targetPoint"/>
                    </mxGeometry>
                </mxCell>
                <mxCell id="154" value="&lt;h1&gt;&lt;font face=&quot;IRANSans&quot;&gt;&lt;u&gt;ID&lt;/u&gt;&lt;/font&gt;&lt;/h1&gt;" style="ellipse;whiteSpace=wrap;html=1;fillColor=#fa6800;strokeColor=#C73500;fontColor=#FFFFFF;" parent="1" vertex="1">
                    <mxGeometry x="1400" y="820" width="93.75" height="50" as="geometry"/>
                </mxCell>
                <mxCell id="155" value="" style="endArrow=none;html=1;fontColor=#FFFFFF;entryX=0.5;entryY=1;entryDx=0;entryDy=0;exitX=0.25;exitY=0;exitDx=0;exitDy=0;" parent="1" source="7" target="154" edge="1">
                    <mxGeometry width="50" height="50" relative="1" as="geometry">
                        <mxPoint x="1518" y="980" as="sourcePoint"/>
                        <mxPoint x="1603.75" y="810" as="targetPoint"/>
                    </mxGeometry>
                </mxCell>
                <mxCell id="157" value="&lt;font style=&quot;font-size: 20px&quot;&gt;Password&lt;/font&gt;" style="ellipse;whiteSpace=wrap;html=1;fillColor=#fa6800;strokeColor=#C73500;fontColor=#FFFFFF;fontSize=20;fontFamily=IRANSans;" vertex="1" parent="1">
                    <mxGeometry x="1340" y="190" width="116.87" height="60" as="geometry"/>
                </mxCell>
                <mxCell id="158" value="" style="endArrow=none;html=1;fontFamily=IRANSans;fontSize=20;exitX=1;exitY=0;exitDx=0;exitDy=0;entryX=0.5;entryY=1;entryDx=0;entryDy=0;" edge="1" parent="1" source="2" target="157">
                    <mxGeometry width="50" height="50" relative="1" as="geometry">
                        <mxPoint x="1350" y="240" as="sourcePoint"/>
                        <mxPoint x="1400" y="190" as="targetPoint"/>
                    </mxGeometry>
                </mxCell>
                <mxCell id="159" value="&lt;font style=&quot;font-size: 20px;&quot;&gt;Name&lt;/font&gt;" style="ellipse;whiteSpace=wrap;html=1;fillColor=#fa6800;strokeColor=#C73500;fontColor=#FFFFFF;fontFamily=IRANSans;fontSize=20;" vertex="1" parent="1">
                    <mxGeometry x="620" y="860" width="93.75" height="50" as="geometry"/>
                </mxCell>
                <mxCell id="160" value="&lt;font style=&quot;font-size: 20px;&quot;&gt;Name&lt;/font&gt;" style="ellipse;whiteSpace=wrap;html=1;fillColor=#fa6800;strokeColor=#C73500;fontColor=#FFFFFF;fontFamily=IRANSans;fontSize=20;" vertex="1" parent="1">
                    <mxGeometry x="1680" y="827" width="93.75" height="50" as="geometry"/>
                </mxCell>
                <mxCell id="161" value="&lt;h1&gt;&lt;font&gt;&lt;u&gt;ID&lt;/u&gt;&lt;/font&gt;&lt;/h1&gt;" style="ellipse;whiteSpace=wrap;html=1;fillColor=#fa6800;strokeColor=#C73500;fontColor=#FFFFFF;fontFamily=IRANSans;" vertex="1" parent="1">
                    <mxGeometry x="1036.25" y="520" width="93.75" height="50" as="geometry"/>
                </mxCell>
                <mxCell id="162" value="&lt;font style=&quot;font-size: 20px&quot;&gt;Title&lt;/font&gt;" style="ellipse;whiteSpace=wrap;html=1;fillColor=#fa6800;strokeColor=#C73500;fontColor=#FFFFFF;fontFamily=IRANSans;fontSize=20;" vertex="1" parent="1">
                    <mxGeometry x="1212.46" y="535" width="93.75" height="50" as="geometry"/>
                </mxCell>
                <mxCell id="163" value="&lt;font style=&quot;font-size: 20px&quot;&gt;Content&lt;/font&gt;" style="ellipse;whiteSpace=wrap;html=1;fillColor=#fa6800;strokeColor=#C73500;fontColor=#FFFFFF;fontSize=20;fontFamily=IRANSans;" vertex="1" parent="1">
                    <mxGeometry x="1306.21" y="585" width="116.87" height="60" as="geometry"/>
                </mxCell>
                <mxCell id="164" value="" style="endArrow=none;html=1;fontFamily=IRANSans;fontSize=20;entryX=0.5;entryY=1;entryDx=0;entryDy=0;" edge="1" parent="1" source="9" target="2">
                    <mxGeometry width="50" height="50" relative="1" as="geometry">
                        <mxPoint x="1050" y="470" as="sourcePoint"/>
                        <mxPoint x="1100" y="420" as="targetPoint"/>
                    </mxGeometry>
                </mxCell>
                <mxCell id="167" value="N" style="text;html=1;strokeColor=none;fillColor=none;align=center;verticalAlign=middle;whiteSpace=wrap;rounded=0;fontFamily=IRANSans;fontSize=15;" vertex="1" parent="1">
                    <mxGeometry x="1250" y="740" width="40" height="20" as="geometry"/>
                </mxCell>
                <mxCell id="168" value="1" style="text;html=1;strokeColor=none;fillColor=none;align=center;verticalAlign=middle;whiteSpace=wrap;rounded=0;fontFamily=IRANSans;fontSize=15;" vertex="1" parent="1">
                    <mxGeometry x="1118.71" y="370" width="40" height="20" as="geometry"/>
                </mxCell>
                <mxCell id="169" value="&lt;h1&gt;&lt;font&gt;User_ID&lt;/font&gt;&lt;/h1&gt;" style="ellipse;whiteSpace=wrap;html=1;fillColor=#fa6800;fontColor=#FFFFFF;fontFamily=IRANSans;dashed=1;dashPattern=1 1;strokeWidth=3;strokeColor=#FFFFFF;" vertex="1" parent="1">
                    <mxGeometry x="918.75" y="550" width="117.5" height="65" as="geometry"/>
                </mxCell>
                <mxCell id="170" value="" style="endArrow=none;html=1;fontFamily=IRANSans;fontSize=15;exitX=0;exitY=0.5;exitDx=0;exitDy=0;entryX=1;entryY=1;entryDx=0;entryDy=0;" edge="1" parent="1" source="4" target="169">
                    <mxGeometry width="50" height="50" relative="1" as="geometry">
                        <mxPoint x="1050" y="710" as="sourcePoint"/>
                        <mxPoint x="990" y="680" as="targetPoint"/>
                    </mxGeometry>
                </mxCell>
                <mxCell id="172" value="" style="endArrow=none;html=1;fontFamily=IRANSans;fontSize=21;exitX=0.5;exitY=0;exitDx=0;exitDy=0;entryX=0.5;entryY=1;entryDx=0;entryDy=0;" edge="1" parent="1" source="7" target="36">
                    <mxGeometry width="50" height="50" relative="1" as="geometry">
                        <mxPoint x="1330" y="900" as="sourcePoint"/>
                        <mxPoint x="1380" y="850" as="targetPoint"/>
                    </mxGeometry>
                </mxCell>
                <mxCell id="173" value="1" style="text;html=1;strokeColor=none;fillColor=none;align=center;verticalAlign=middle;whiteSpace=wrap;rounded=0;fontFamily=IRANSans;fontSize=15;" vertex="1" parent="1">
                    <mxGeometry x="1560" y="910" width="40" height="20" as="geometry"/>
                </mxCell>
                <mxCell id="174" value="&lt;h1&gt;&lt;font&gt;Folder_ID&lt;/font&gt;&lt;/h1&gt;" style="ellipse;whiteSpace=wrap;html=1;fillColor=#fa6800;fontColor=#FFFFFF;fontFamily=IRANSans;dashed=1;dashPattern=1 1;strokeWidth=3;strokeColor=#FFFFFF;" vertex="1" parent="1">
                    <mxGeometry x="800" y="630" width="142.5" height="65" as="geometry"/>
                </mxCell>
                <mxCell id="175" value="" style="endArrow=none;html=1;fontFamily=IRANSans;fontSize=21;entryX=0;entryY=0.75;entryDx=0;entryDy=0;exitX=1;exitY=0.5;exitDx=0;exitDy=0;" edge="1" parent="1" source="174" target="4">
                    <mxGeometry width="50" height="50" relative="1" as="geometry">
                        <mxPoint x="980" y="730" as="sourcePoint"/>
                        <mxPoint x="1030" y="680" as="targetPoint"/>
                    </mxGeometry>
                </mxCell>
                <mxCell id="178" style="edgeStyle=orthogonalEdgeStyle;shape=link;rounded=0;orthogonalLoop=1;jettySize=auto;html=1;exitX=0.5;exitY=1;exitDx=0;exitDy=0;entryX=1;entryY=0.5;entryDx=0;entryDy=0;fontFamily=IRANSans;fontSize=21;width=6;" edge="1" parent="1" source="176" target="7">
                    <mxGeometry relative="1" as="geometry">
                        <Array as="points">
                            <mxPoint x="1675" y="690"/>
                            <mxPoint x="1810" y="690"/>
                            <mxPoint x="1810" y="980"/>
                        </Array>
                    </mxGeometry>
                </mxCell>
                <mxCell id="176" value="&lt;p style=&quot;font-size: 21px&quot;&gt;Ownership&lt;/p&gt;" style="rhombus;whiteSpace=wrap;html=1;fillColor=#e3c800;strokeColor=#B09500;fontColor=#000000;fontFamily=IRANSans;fontSize=21;" vertex="1" parent="1">
                    <mxGeometry x="1610" y="400" width="130" height="130" as="geometry"/>
                </mxCell>
                <mxCell id="179" value="&lt;h1&gt;&lt;font&gt;User_ID&lt;/font&gt;&lt;/h1&gt;" style="ellipse;whiteSpace=wrap;html=1;fillColor=#fa6800;fontColor=#FFFFFF;fontFamily=IRANSans;dashed=1;dashPattern=1 1;strokeWidth=3;strokeColor=#FFFFFF;" vertex="1" parent="1">
                    <mxGeometry x="1320" y="910" width="117.5" height="65" as="geometry"/>
                </mxCell>
                <mxCell id="180" value="" style="endArrow=none;html=1;fontFamily=IRANSans;fontSize=21;entryX=0;entryY=0.5;entryDx=0;entryDy=0;exitX=1;exitY=0.5;exitDx=0;exitDy=0;" edge="1" parent="1" source="179" target="7">
                    <mxGeometry width="50" height="50" relative="1" as="geometry">
                        <mxPoint x="1390" y="860" as="sourcePoint"/>
                        <mxPoint x="1440" y="810" as="targetPoint"/>
                    </mxGeometry>
                </mxCell>
                <mxCell id="181" value="" style="endArrow=none;html=1;fontFamily=IRANSans;fontSize=21;entryX=0.5;entryY=0;entryDx=0;entryDy=0;exitX=1;exitY=0.5;exitDx=0;exitDy=0;" edge="1" parent="1" source="2" target="176">
                    <mxGeometry width="50" height="50" relative="1" as="geometry">
                        <mxPoint x="1390" y="560" as="sourcePoint"/>
                        <mxPoint x="1440" y="510" as="targetPoint"/>
                    </mxGeometry>
                </mxCell>
                <mxCell id="182" value="1" style="text;html=1;strokeColor=none;fillColor=none;align=center;verticalAlign=middle;whiteSpace=wrap;rounded=0;fontFamily=IRANSans;fontSize=15;" vertex="1" parent="1">
                    <mxGeometry x="1266.88" y="350" width="40" height="20" as="geometry"/>
                </mxCell>
                <mxCell id="183" value="N" style="text;html=1;strokeColor=none;fillColor=none;align=center;verticalAlign=middle;whiteSpace=wrap;rounded=0;fontFamily=IRANSans;fontSize=15;" vertex="1" parent="1">
                    <mxGeometry x="1690" y="950" width="40" height="20" as="geometry"/>
                </mxCell>
                <mxCell id="184" value="&lt;p style=&quot;font-size: 15px;&quot;&gt;Create&lt;/p&gt;" style="rhombus;whiteSpace=wrap;html=1;fillColor=#e3c800;strokeColor=#B09500;fontColor=#000000;fontFamily=IRANSans;fontSize=15;" vertex="1" parent="1">
                    <mxGeometry x="1081" y="910" width="88.14" height="102.5" as="geometry"/>
                </mxCell>
                <mxCell id="187" value="N" style="text;html=1;strokeColor=none;fillColor=none;align=center;verticalAlign=middle;whiteSpace=wrap;rounded=0;fontFamily=IRANSans;fontSize=15;" vertex="1" parent="1">
                    <mxGeometry x="1110" y="780" width="40" height="20" as="geometry"/>
                </mxCell>
                <mxCell id="188" value="M" style="text;html=1;strokeColor=none;fillColor=none;align=center;verticalAlign=middle;whiteSpace=wrap;rounded=0;fontFamily=IRANSans;fontSize=15;" vertex="1" parent="1">
                    <mxGeometry x="910" y="940" width="40" height="20" as="geometry"/>
                </mxCell>
                <mxCell id="189" value="&lt;h2 style=&quot;font-size: 20px&quot;&gt;&lt;font style=&quot;font-size: 20px&quot;&gt;TaskTags&lt;/font&gt;&lt;/h2&gt;" style="whiteSpace=wrap;html=1;fillColor=#6a00ff;strokeColor=#3700CC;fontColor=#ffffff;fontSize=20;fontFamily=IRANSans;" vertex="1" parent="1">
                    <mxGeometry x="1050" y="1120" width="160" height="60" as="geometry"/>
                </mxCell>
                <mxCell id="190" value="&lt;h1&gt;&lt;font face=&quot;IRANSans&quot;&gt;&lt;u&gt;ID&lt;/u&gt;&lt;/font&gt;&lt;/h1&gt;" style="ellipse;whiteSpace=wrap;html=1;fillColor=#fa6800;strokeColor=#C73500;fontColor=#FFFFFF;" vertex="1" parent="1">
                    <mxGeometry x="883.1299999999999" y="1160" width="93.75" height="50" as="geometry"/>
                </mxCell>
                <mxCell id="191" value="" style="endArrow=none;html=1;fontFamily=IRANSans;fontSize=21;exitX=0;exitY=0.5;exitDx=0;exitDy=0;entryX=1;entryY=0.5;entryDx=0;entryDy=0;" edge="1" parent="1" source="189" target="190">
                    <mxGeometry width="50" height="50" relative="1" as="geometry">
                        <mxPoint x="1060" y="1120" as="sourcePoint"/>
                        <mxPoint x="1110" y="1070" as="targetPoint"/>
                    </mxGeometry>
                </mxCell>
                <mxCell id="192" value="&lt;h1&gt;&lt;font&gt;Task_ID&lt;/font&gt;&lt;/h1&gt;" style="ellipse;whiteSpace=wrap;html=1;fillColor=#fa6800;fontColor=#FFFFFF;fontFamily=IRANSans;dashed=1;dashPattern=1 1;strokeWidth=3;strokeColor=#FFFFFF;" vertex="1" parent="1">
                    <mxGeometry x="1011.54" y="1230" width="117.5" height="65" as="geometry"/>
                </mxCell>
                <mxCell id="193" value="&lt;h1&gt;&lt;font&gt;Tag_ID&lt;/font&gt;&lt;/h1&gt;" style="ellipse;whiteSpace=wrap;html=1;fillColor=#fa6800;fontColor=#FFFFFF;fontFamily=IRANSans;dashed=1;dashPattern=1 1;strokeWidth=3;strokeColor=#FFFFFF;" vertex="1" parent="1">
                    <mxGeometry x="1190" y="1241" width="117.5" height="65" as="geometry"/>
                </mxCell>
                <mxCell id="194" value="" style="endArrow=none;html=1;fontFamily=IRANSans;fontSize=21;entryX=0.5;entryY=0;entryDx=0;entryDy=0;" edge="1" parent="1" target="192">
                    <mxGeometry width="50" height="50" relative="1" as="geometry">
                        <mxPoint x="1084" y="1180" as="sourcePoint"/>
                        <mxPoint x="1110" y="1040" as="targetPoint"/>
                    </mxGeometry>
                </mxCell>
                <mxCell id="195" value="" style="endArrow=none;html=1;fontFamily=IRANSans;fontSize=21;entryX=0.5;entryY=0;entryDx=0;entryDy=0;exitX=0.75;exitY=1;exitDx=0;exitDy=0;" edge="1" parent="1" source="189" target="193">
                    <mxGeometry width="50" height="50" relative="1" as="geometry">
                        <mxPoint x="1170" y="1180" as="sourcePoint"/>
                        <mxPoint x="1110" y="1040" as="targetPoint"/>
                    </mxGeometry>
                </mxCell>
            </root>
        </mxGraphModel>
    </diagram>
</mxfile>
